HIERARCHY
ROOT Hips
{
	OFFSET 0.000000 0.000000 0.000000 
	CHANNELS 6 Xposition Yposition Zposition Yrotation Zrotation Xrotation 
	JOINT Lumbar
	{
		OFFSET 0.000000 0.000000 0.000000 
		CHANNELS 3 Zrotation Xrotation Yrotation
		JOINT Neck
		{
			OFFSET 0.000000 0.445665 0.000000 
			CHANNELS 3 Zrotation Xrotation Yrotation
			End Site
			{
				OFFSET 0.000000 0.227535 0.000000 
			}
		}
		JOINT RightShoulder
		{
			OFFSET 0.019635 0.377685 0.194865 
			CHANNELS 3 Zrotation Xrotation Yrotation
			JOINT RightElbow
			{
				OFFSET 0.000000 -0.243375 0.000000 
				CHANNELS 2 Zrotation Yrotation
				JOINT RightWrist
				{
					OFFSET 0.000000 -0.264825 0.000000 
					CHANNELS 2 Zrotation Xrotation
					End Site
					{
						OFFSET 0.006600 -0.176220 0.000990 
					}
				}
			}
		}
		JOINT LeftShoulder
		{
			OFFSET 0.019635 0.377685 -0.194865 
			CHANNELS 3 Zrotation Xrotation Yrotation
			JOINT LeftElbow
			{
				OFFSET 0.000000 -0.243375 0.000000 
				CHANNELS 2 Zrotation Yrotation
				JOINT LeftWrist
				{
					OFFSET 0.000000 -0.264825 0.000000 
					CHANNELS 2 Zrotation Xrotation
					End Site
					{
						OFFSET 0.006600 -0.176220 -0.000990 
					}
				}
			}
		}
	}
	JOINT RightHip
	{
		OFFSET 0.052140 -0.069960 0.075570 
		CHANNELS 3 Zrotation Xrotation Yrotation
		JOINT RightKnee
		{
			OFFSET 0.000000 -0.402270 0.000000 
			CHANNELS 1 Zrotation
			JOINT RightAnkle
			{
				OFFSET 0.000000 -0.404085 0.000000 
				CHANNELS 3 Zrotation Xrotation Yrotation
				End Site
				{
					OFFSET 0.204105 -0.089430 0.008415 
				}
			}
		}
	}
	JOINT LeftHip
	{
		OFFSET 0.052140 -0.069960 -0.075570 
		CHANNELS 3 Zrotation Xrotation Yrotation
		JOINT LeftKnee
		{
			OFFSET 0.000000 -0.402270 0.000000 
			CHANNELS 1 Zrotation
			JOINT LeftAnkle
			{
				OFFSET 0.000000 -0.404085 0.000000 
				CHANNELS 3 Zrotation Xrotation Yrotation
				End Site
				{
					OFFSET 0.204105 -0.089430 -0.008415 
				}
			}
		}
	}
}
MOTION
Frames: 28
Frame Time: 0.02
0.41974 0.8255 0.01223 178.64536 0 -3.51175 -52.02065 3.74606 2.23278 4.08587 5.15219 0.87253 26.73954 -31.03777 25.34176 77.928 112.45164 -37.83543 -7.15094 14.3821 23.47542 -17.23193 80.13288 -105.58909 -35.21476 6.40954 38.61523 3.42493 -1.07505 -51.20871 5.908 -3.79788 -3.23205 40.37059 7.29484 -1.52612 -54.20779 11.59593 -2.7253 -6.23838
0.41206 0.83493 0.00962 178.8101 0 -3.42559 -50.85652 3.9367 2.01245 3.66049 5.33173 0.90547 28.09998 -31.13158 26.15626 80.07939 114.0889 -39.63929 -7.27391 15.39047 23.17076 -18.24707 81.73786 -105.62465 -35.67191 6.38531 37.08774 3.48139 -0.99373 -49.3505 5.31743 -3.77691 -3.4322 38.76217 7.35427 -1.35475 -52.13334 11.02442 -2.55227 -6.38962
0.40396 0.84404 0.00684 178.96819 0 -3.32054 -49.48441 4.12497 1.7375 3.10523 5.5136 0.97922 29.81362 -31.2008 27.17732 81.65147 115.66028 -41.33552 -7.40583 16.63774 22.85455 -19.3567 83.40171 -105.60195 -36.29105 6.34156 35.56172 3.53977 -0.88911 -47.50376 4.72211 -3.73057 -3.63789 37.12702 7.40862 -1.17258 -50.02917 10.44101 -2.38375 -6.54546
0.396 0.85325 0.00414 179.12933 0 -3.22619 -48.19114 4.31745 1.4878 2.5993 5.68757 1.02863 31.37656 -31.26226 28.1109 83.41918 117.24354 -43.0034 -7.53539 17.80209 22.53922 -20.42471 84.99766 -105.60279 -36.82319 6.30733 34.03398 3.59852 -0.80077 -45.65312 4.13176 -3.69732 -3.8392 35.5042 7.46635 -0.99921 -47.94155 9.86554 -2.21446 -6.69621
0.38824 0.86266 0.00146 179.29192 0 -3.12252 -46.95709 4.4983 1.2359 2.13504 5.89139 1.1024 32.90741 -31.40401 29.02296 85.46783 118.92489 -45.00827 -7.65982 18.8611 22.24187 -21.48931 86.77203 -105.62085 -37.41148 6.27111 32.50974 3.65219 -0.68783 -43.79526 3.52747 -3.65869 -4.05034 33.87944 7.51902 -0.80957 -45.83804 9.27727 -2.04006 -6.86014
0.37997 0.87157 -0.00132 179.44867 0 -3.03391 -45.55221 4.70185 0.97613 1.54983 6.03289 1.13496 34.58325 -31.37328 30.02413 86.79916 120.36724 -46.27841 -7.79508 20.19562 21.90547 -22.58145 88.18665 -105.58083 -37.91849 6.23347 30.97974 3.71697 -0.6206 -41.95718 2.95271 -3.62482 -4.24094 32.25361 7.58145 -0.65075 -43.76346 8.71436 -1.87751 -6.99736
0.37045 0.87934 -0.00434 179.59866 0 -2.99159 -43.73603 4.97275 0.70343 0.69994 6.00579 1.04636 36.5979 -30.86441 31.25337 86.24925 121.29854 -45.58672 -7.97275 22.2241 21.45321 -23.74007 88.60045 -105.47653 -38.19853 6.20474 29.42388 3.81024 -0.68753 -40.15462 2.45091 -3.60979 -4.38153 30.62201 7.66921 -0.58547 -41.75541 8.21566 -1.74361 -7.06114
0.36044 0.8866 -0.00746 179.74138 0 -2.96505 -41.75477 5.26555 0.42546 -0.27351 5.91512 0.91449 38.73949 -30.18492 32.55828 85.00783 121.96661 -44.15281 -8.15815 24.52088 20.96467 -24.9199 88.65083 -105.30194 -38.38548 6.17385 27.86425 3.91488 -0.80065 -38.37505 1.98117 -3.60033 -4.49977 28.99226 7.76742 -0.55074 -39.78185 7.7448 -1.62189 -7.09734
0.35064 0.89403 -0.01054 179.88234 0 -2.93137 -39.84347 5.5456 0.15304 -1.215 5.85075 0.80068 40.80719 -29.58758 33.80748 84.1077 122.66525 -43.02829 -8.33032 26.70207 20.49896 -26.08172 88.85914 -105.10492 -38.59036 6.13854 26.31232 4.01544 -0.8917 -36.59509 1.5031 -3.58846 -4.62255 27.36759 7.86295 -0.49799 -37.80578 7.26696 -1.49654 -7.14543
0.34088 0.90174 -0.01362 180.04475 0 -2.89715 -37.9447 5.83779 -0.13422 -2.06015 5.79717 0.69482 42.96059 -28.96672 35.1559 83.06329 123.73291 -42.00927 -8.54393 28.87217 20.00337 -27.28457 89.08953 -105.13106 -38.90087 6.12492 24.73406 4.11158 -0.9878 -34.77127 0.99775 -3.57525 -4.7685 25.71614 7.95011 -0.46146 -35.77172 6.76433 -1.36358 -7.19728
0.33094 0.90872 -0.01671 180.16048 0 -2.86775 -35.9852 6.10946 -0.39158 -3.1321 5.70625 0.5619 44.95493 -28.35869 36.31051 82.17519 123.97637 -40.60656 -8.67285 31.11681 19.56496 -28.40278 89.20011 -104.68187 -38.97074 6.0664 23.21113 4.21949 -1.083 -33.04634 0.55781 -3.56642 -4.86177 24.1223 8.05657 -0.39963 -33.86874 6.32063 -1.24896 -7.23358
0.32059 0.9139 -0.01982 180.15186 0 -2.85054 -33.88445 6.32281 -0.56103 -4.81218 5.52542 0.36235 46.52913 -27.79319 36.93104 81.78371 121.95523 -38.23188 -8.56675 33.57776 19.26435 -29.306 88.95512 -102.89103 -38.36773 5.87998 21.83036 4.3581 -1.17829 -31.57037 0.28295 -3.56902 -4.80665 22.67895 8.21962 -0.2508 -32.30577 6.0285 -1.1851 -7.24324
0.3101 0.91835 -0.02293 180.09591 0 -2.83724 -31.73248 6.51405 -0.70081 -6.71305 5.30962 0.13757 47.92792 -27.25302 37.34928 81.59565 119.12416 -35.5147 -8.37501 36.08827 19.02804 -30.1177 88.6234 -100.6333 -37.53092 5.64941 20.50783 4.508 -1.26833 -30.19676 0.07428 -3.57589 -4.70092 21.29562 8.40071 -0.07706 -30.8768 5.7956 -1.13873 -7.23653
0.29969 0.92307 -0.02604 180.06002 0 -2.82041 -29.61353 6.71304 -0.85642 -8.50458 5.11138 -0.07455 49.37207 -26.72414 37.84616 81.38583 116.69875 -33.01659 -8.22187 38.52591 18.78131 -30.95596 88.40513 -98.61986 -36.82056 5.44206 19.16584 4.6521 -1.35218 -28.78811 -0.15964 -3.5804 -4.62367 19.88972 8.56966 0.07857 -29.39476 5.53847 -1.0822 -7.23088
0.28919 0.92801 -0.02919 180.0305 0 -2.81144 -27.44541 6.92262 -1.00188 -10.33963 4.90393 -0.29423 50.96508 -26.09326 38.40167 80.85353 114.10454 -30.22499 -8.07016 41.18876 18.45382 -31.86115 87.86006 -96.46794 -36.02112 5.22123 17.793 4.79938 -1.47501 -27.3309 -0.41287 -3.58658 -4.52204 18.46217 8.75542 0.2608 -27.87842 5.2709 -1.03516 -7.25066
0.27885 0.93233 -0.03224 179.97592 0 -2.78694 -25.37238 7.10446 -1.16193 -12.13341 4.70815 -0.50231 52.20572 -25.68277 38.78634 81.04973 111.67417 -27.97278 -7.89527 43.38686 18.31043 -32.60159 87.98182 -94.49502 -35.35373 5.01811 16.49974 4.94261 -1.51333 -25.99999 -0.61053 -3.59057 -4.46006 17.09623 8.91057 0.39519 -26.46795 5.03885 -0.97272 -7.21464
0.26891 0.9352 -0.03502 179.86929 0 -2.71767 -23.55352 7.21613 -1.36384 -13.7703 4.55381 -0.68313 52.50623 -25.8781 38.74517 83.21684 109.88557 -27.30049 -7.67518 44.32119 18.65863 -32.93766 89.94987 -93.12792 -35.10182 4.87422 15.40027 5.07139 -1.33217 -24.98326 -0.67125 -3.58445 -4.5148 15.86733 8.97455 0.38075 -25.29239 4.88994 -0.86018 -7.02293
0.25916 0.93748 -0.03771 179.73809 0 -2.63272 -21.83738 7.30028 -1.58206 -15.35503 4.41275 -0.84922 52.45959 -26.29443 38.53944 86.11131 108.29263 -27.18566 -7.43506 44.77908 19.19006 -33.10588 92.59589 -91.95885 -34.99281 4.74988 14.38137 5.19567 -1.06368 -24.09202 -0.67833 -3.57648 -4.61217 14.70244 9.00745 0.31943 -24.22409 4.77479 -0.73217 -6.77701
0.24939 0.93999 -0.04043 179.61448 0 -2.55553 -20.08817 7.39636 -1.79705 -16.95607 4.26533 -1.01452 52.57752 -26.60836 38.41085 88.67122 106.6175 -26.81461 -7.20551 45.43257 19.63878 -33.33209 94.94527 -90.70011 -34.82268 4.61681 13.33294 5.32241 -0.82653 -23.14909 -0.70999 -3.57138 -4.69363 13.51951 9.05597 0.28671 -23.12157 4.64425 -0.61321 -6.55944
0.23932 0.94261 -0.04319 179.50422 0 -2.47592 -18.2776 7.49444 -1.99511 -18.5973 4.11748 -1.21196 52.6598 -26.93193 38.26483 91.25728 104.88626 -26.44204 -6.96688 46.17515 20.08828 -33.63157 97.24703 -89.41993 -34.62703 4.48113 12.25549 5.44811 -0.62401 -22.1861 -0.7388 -3.55803 -4.75904 12.28944 9.09882 0.22408 -21.95879 4.51563 -0.48601 -6.32478
0.22994 0.94486 -0.04584 179.36105 0 -2.39743 -16.62244 7.58169 -2.23049 -20.13805 3.97484 -1.33911 52.73726 -27.28689 38.11928 93.95582 103.32803 -26.21116 -6.74338 46.61979 20.57765 -33.74077 99.80509 -88.24217 -34.52301 4.3566 11.25826 5.57436 -0.32925 -21.29471 -0.76126 -3.56115 -4.8682 11.17522 9.14587 0.21226 -20.94979 4.39072 -0.37251 -6.11413
0.22231 0.94626 -0.04823 179.13232 0 -2.32722 -15.35094 7.64937 -2.58369 -21.4252 3.8374 -1.27115 52.87755 -27.68028 38.01077 96.8142 102.21264 -26.22496 -6.56833 46.34489 21.14233 -33.35738 102.94887 -87.26147 -34.6257 4.25414 10.45098 5.70657 0.2033 -20.55855 -0.78337 -3.61186 -5.09162 10.33851 9.21196 0.35154 -20.30176 4.2632 -0.29652 -5.97352
0.2154 0.9473 -0.05052 178.87175 0 -2.2585 -14.23681 7.70656 -2.97048 -22.60961 3.70593 -1.13363 53.02744 -28.0962 37.91039 99.75401 101.2668 -26.36612 -6.40936 45.78899 21.73859 -32.79056 106.31889 -86.38625 -34.81892 4.16316 9.72373 5.83882 0.8244 -19.89187 -0.80058 -3.67879 -5.35681 9.62174 9.28331 0.54304 -19.81239 4.13869 -0.23544 -5.86059
0.20822 0.94848 -0.05285 178.62632 0 -2.18808 -13.06371 7.76624 -3.32979 -23.83294 3.57594 -1.03094 53.17966 -28.4982 37.81011 102.63854 100.23831 -26.45708 -6.24218 45.37005 22.31351 -32.31325 109.5578 -85.48972 -34.97937 4.06974 8.96708 5.96876 1.40255 -19.20048 -0.81765 -3.73722 -5.60097 8.86617 9.3522 0.71161 -19.2726 4.0156 -0.17022 -5.74161
0.20077 0.94972 -0.0552 178.37685 0 -2.12107 -11.83941 7.83444 -3.74137 -25.08831 3.42912 -0.91443 53.29165 -28.92447 37.68744 105.62833 99.23768 -26.53364 -6.07774 44.89474 22.92445 -31.80295 112.94216 -84.48779 -35.10951 3.9653 8.18312 6.10814 1.99691 -18.4842 -0.84259 -3.80061 -5.85649 8.04295 9.42019 0.87734 -18.6398 3.88233 -0.09367 -5.59407
0.19409 0.95076 -0.05749 178.12896 0 -2.04795 -10.76002 7.88295 -4.05168 -26.25208 3.31805 -0.81006 53.49396 -29.30139 37.61614 108.40544 98.21944 -26.66474 -5.91212 44.47718 23.46536 -31.32137 116.06546 -83.72738 -35.32221 3.88624 7.47489 6.22806 2.57524 -17.83502 -0.85096 -3.85726 -6.09613 7.39282 9.49188 1.05926 -18.24364 3.77006 -0.04406 -5.51217
0.18928 0.95132 -0.05966 177.89049 0 -1.95397 -10.02334 7.87811 -4.07538 -27.19755 3.30912 -0.75911 53.94797 -29.54613 37.68053 110.59882 97.08966 -26.89986 -5.73596 44.28323 23.80471 -30.95374 118.43387 -83.61418 -35.74324 3.87487 6.94836 6.29303 3.10502 -17.35056 -0.81234 -3.8938 -6.295 7.15307 9.57059 1.29639 -18.40553 3.71863 -0.06838 -5.6145
0.18525 0.95169 -0.06178 177.65565 0 -1.85457 -9.43031 7.85424 -3.99566 -28.05298 3.33495 -0.7224 54.49361 -29.73744 37.79797 112.56677 95.93981 -27.18532 -5.55887 44.16091 24.07142 -30.62446 120.52359 -83.73922 -36.24346 3.88847 6.49649 6.33863 3.61154 -16.93154 -0.75779 -3.92254 -6.4737 7.09068 9.65311 1.54367 -18.81052 3.6871 -0.11864 -5.78019
